<svg width="141" height="45" viewBox="0 0 141 45" fill="none" xmlns="http://www.w3.org/2000/svg">
<path d="M136 1.25H5C2.92893 1.25 1.25 2.92893 1.25 5V40C1.25 42.0711 2.92893 43.75 5 43.75H136C138.071 43.75 139.75 42.0711 139.75 40V5C139.75 2.92893 138.071 1.25 136 1.25Z" fill="white" stroke="#172B4D" stroke-width="1.5"/>
<path d="M53.4912 10.8379L51.3672 17H50.083L52.7588 9.89062H53.5791L53.4912 10.8379ZM55.2686 17L53.1396 10.8379L53.0469 9.89062H53.8721L56.5576 17H55.2686ZM55.166 14.3633V15.335H51.2988V14.3633H55.166ZM58.7109 16.0674L60.0049 11.7168H61.2256L59.3896 17H58.6279L58.7109 16.0674ZM57.7197 11.7168L59.0381 16.0869L59.1016 17H58.3398L56.4941 11.7168H57.7197ZM64.8535 15.9404V13.4209C64.8535 13.2321 64.8193 13.0693 64.751 12.9326C64.6826 12.7959 64.5785 12.6901 64.4385 12.6152C64.3018 12.5404 64.1292 12.5029 63.9209 12.5029C63.7288 12.5029 63.5628 12.5355 63.4229 12.6006C63.2829 12.6657 63.1738 12.7536 63.0957 12.8643C63.0176 12.9749 62.9785 13.1003 62.9785 13.2402H61.8066C61.8066 13.0319 61.8571 12.8301 61.958 12.6348C62.0589 12.4395 62.2054 12.2653 62.3975 12.1123C62.5895 11.9593 62.819 11.8389 63.0859 11.751C63.3529 11.6631 63.6523 11.6191 63.9844 11.6191C64.3815 11.6191 64.7331 11.6859 65.0391 11.8193C65.3483 11.9528 65.5908 12.1546 65.7666 12.4248C65.9456 12.6917 66.0352 13.027 66.0352 13.4307V15.7793C66.0352 16.0202 66.0514 16.2367 66.084 16.4287C66.1198 16.6175 66.1702 16.7819 66.2354 16.9219V17H65.0293C64.974 16.873 64.93 16.7119 64.8975 16.5166C64.8682 16.318 64.8535 16.126 64.8535 15.9404ZM65.0244 13.7871L65.0342 14.5146H64.1895C63.9714 14.5146 63.7793 14.5358 63.6133 14.5781C63.4473 14.6172 63.3089 14.6758 63.1982 14.7539C63.0876 14.832 63.0046 14.9264 62.9492 15.0371C62.8939 15.1478 62.8662 15.2731 62.8662 15.4131C62.8662 15.5531 62.8988 15.6816 62.9639 15.7988C63.029 15.9128 63.1234 16.0023 63.2471 16.0674C63.374 16.1325 63.527 16.165 63.7061 16.165C63.9469 16.165 64.1569 16.1162 64.3359 16.0186C64.5182 15.9176 64.6615 15.7956 64.7656 15.6523C64.8698 15.5059 64.9251 15.3675 64.9316 15.2373L65.3125 15.7598C65.2734 15.8932 65.2067 16.0365 65.1123 16.1895C65.0179 16.3424 64.8942 16.4889 64.7412 16.6289C64.5915 16.7656 64.4108 16.8779 64.1992 16.9658C63.9909 17.0537 63.75 17.0977 63.4766 17.0977C63.1315 17.0977 62.8239 17.0293 62.5537 16.8926C62.2835 16.7526 62.0719 16.5654 61.9189 16.3311C61.766 16.0934 61.6895 15.8249 61.6895 15.5254C61.6895 15.2454 61.7415 14.998 61.8457 14.7832C61.9531 14.5651 62.1094 14.3828 62.3145 14.2363C62.5228 14.0898 62.7767 13.9792 63.0762 13.9043C63.3757 13.8262 63.7174 13.7871 64.1016 13.7871H65.0244ZM68.5254 11.7168V17H67.3438V11.7168H68.5254ZM67.2656 10.3301C67.2656 10.151 67.3242 10.0029 67.4414 9.88574C67.5618 9.7653 67.7279 9.70508 67.9395 9.70508C68.1478 9.70508 68.3122 9.7653 68.4326 9.88574C68.5531 10.0029 68.6133 10.151 68.6133 10.3301C68.6133 10.5059 68.5531 10.6523 68.4326 10.7695C68.3122 10.8867 68.1478 10.9453 67.9395 10.9453C67.7279 10.9453 67.5618 10.8867 67.4414 10.7695C67.3242 10.6523 67.2656 10.5059 67.2656 10.3301ZM71.0742 9.5V17H69.8926V9.5H71.0742ZM75.3418 15.9404V13.4209C75.3418 13.2321 75.3076 13.0693 75.2393 12.9326C75.1709 12.7959 75.0667 12.6901 74.9268 12.6152C74.79 12.5404 74.6175 12.5029 74.4092 12.5029C74.2171 12.5029 74.0511 12.5355 73.9111 12.6006C73.7712 12.6657 73.6621 12.7536 73.584 12.8643C73.5059 12.9749 73.4668 13.1003 73.4668 13.2402H72.2949C72.2949 13.0319 72.3454 12.8301 72.4463 12.6348C72.5472 12.4395 72.6937 12.2653 72.8857 12.1123C73.0778 11.9593 73.3073 11.8389 73.5742 11.751C73.8411 11.6631 74.1406 11.6191 74.4727 11.6191C74.8698 11.6191 75.2214 11.6859 75.5273 11.8193C75.8366 11.9528 76.0791 12.1546 76.2549 12.4248C76.4339 12.6917 76.5234 13.027 76.5234 13.4307V15.7793C76.5234 16.0202 76.5397 16.2367 76.5723 16.4287C76.6081 16.6175 76.6585 16.7819 76.7236 16.9219V17H75.5176C75.4622 16.873 75.4183 16.7119 75.3857 16.5166C75.3564 16.318 75.3418 16.126 75.3418 15.9404ZM75.5127 13.7871L75.5225 14.5146H74.6777C74.4596 14.5146 74.2676 14.5358 74.1016 14.5781C73.9355 14.6172 73.7972 14.6758 73.6865 14.7539C73.5758 14.832 73.4928 14.9264 73.4375 15.0371C73.3822 15.1478 73.3545 15.2731 73.3545 15.4131C73.3545 15.5531 73.387 15.6816 73.4521 15.7988C73.5173 15.9128 73.6117 16.0023 73.7354 16.0674C73.8623 16.1325 74.0153 16.165 74.1943 16.165C74.4352 16.165 74.6452 16.1162 74.8242 16.0186C75.0065 15.9176 75.1497 15.7956 75.2539 15.6523C75.3581 15.5059 75.4134 15.3675 75.4199 15.2373L75.8008 15.7598C75.7617 15.8932 75.695 16.0365 75.6006 16.1895C75.5062 16.3424 75.3825 16.4889 75.2295 16.6289C75.0798 16.7656 74.8991 16.8779 74.6875 16.9658C74.4792 17.0537 74.2383 17.0977 73.9648 17.0977C73.6198 17.0977 73.3122 17.0293 73.042 16.8926C72.7718 16.7526 72.5602 16.5654 72.4072 16.3311C72.2542 16.0934 72.1777 15.8249 72.1777 15.5254C72.1777 15.2454 72.2298 14.998 72.334 14.7832C72.4414 14.5651 72.5977 14.3828 72.8027 14.2363C73.0111 14.0898 73.265 13.9792 73.5645 13.9043C73.8639 13.8262 74.2057 13.7871 74.5898 13.7871H75.5127ZM77.7588 9.5H78.9355V15.8721L78.8232 17H77.7588V9.5ZM82.3828 14.3096V14.4121C82.3828 14.8027 82.3389 15.1624 82.251 15.4912C82.1663 15.8167 82.0361 16.0999 81.8604 16.3408C81.6878 16.5817 81.473 16.7689 81.2158 16.9023C80.9619 17.0326 80.6673 17.0977 80.332 17.0977C80.0033 17.0977 79.7168 17.0358 79.4727 16.9121C79.2285 16.7884 79.0234 16.6126 78.8574 16.3848C78.6947 16.1569 78.5628 15.8851 78.4619 15.5693C78.361 15.2536 78.2894 14.9053 78.2471 14.5244V14.1973C78.2894 13.8132 78.361 13.4648 78.4619 13.1523C78.5628 12.8366 78.6947 12.5648 78.8574 12.3369C79.0234 12.1058 79.2269 11.9284 79.4678 11.8047C79.7119 11.681 79.9967 11.6191 80.3223 11.6191C80.6608 11.6191 80.9587 11.6842 81.2158 11.8145C81.4762 11.9447 81.6927 12.1302 81.8652 12.3711C82.0378 12.6087 82.1663 12.8919 82.251 13.2207C82.3389 13.5495 82.3828 13.9124 82.3828 14.3096ZM81.2061 14.4121V14.3096C81.2061 14.0719 81.1865 13.849 81.1475 13.6406C81.1084 13.429 81.0433 13.2435 80.9521 13.084C80.8643 12.9245 80.7438 12.7992 80.5908 12.708C80.4411 12.6136 80.2539 12.5664 80.0293 12.5664C79.821 12.5664 79.6419 12.6022 79.4922 12.6738C79.3424 12.7454 79.2171 12.8431 79.1162 12.9668C79.0153 13.0905 78.9355 13.2337 78.877 13.3965C78.8216 13.5592 78.7842 13.735 78.7646 13.9238V14.8076C78.7939 15.0518 78.8558 15.2764 78.9502 15.4814C79.0479 15.6833 79.1846 15.846 79.3604 15.9697C79.5361 16.0902 79.7624 16.1504 80.0391 16.1504C80.2572 16.1504 80.4411 16.1064 80.5908 16.0186C80.7406 15.9307 80.8594 15.8086 80.9473 15.6523C81.0384 15.4928 81.1035 15.3073 81.1426 15.0957C81.1849 14.8841 81.2061 14.6562 81.2061 14.4121ZM84.6387 9.5V17H83.457V9.5H84.6387ZM88.2568 17.0977C87.8662 17.0977 87.513 17.0342 87.1973 16.9072C86.8848 16.777 86.6178 16.5964 86.3965 16.3652C86.1784 16.1341 86.0107 15.8623 85.8936 15.5498C85.7764 15.2373 85.7178 14.9004 85.7178 14.5391V14.3438C85.7178 13.9303 85.778 13.556 85.8984 13.2207C86.0189 12.8854 86.1865 12.599 86.4014 12.3613C86.6162 12.1204 86.8701 11.9365 87.1631 11.8096C87.4561 11.6826 87.7734 11.6191 88.1152 11.6191C88.4928 11.6191 88.8232 11.6826 89.1064 11.8096C89.3896 11.9365 89.624 12.1156 89.8096 12.3467C89.9984 12.5745 90.1383 12.8464 90.2295 13.1621C90.3239 13.4779 90.3711 13.8262 90.3711 14.207V14.71H86.2891V13.8652H89.209V13.7725C89.2025 13.5609 89.1602 13.3623 89.082 13.1768C89.0072 12.9912 88.8916 12.8415 88.7354 12.7275C88.5791 12.6136 88.3708 12.5566 88.1104 12.5566C87.915 12.5566 87.7409 12.599 87.5879 12.6836C87.4382 12.765 87.3128 12.8838 87.2119 13.04C87.111 13.1963 87.0329 13.3851 86.9775 13.6064C86.9255 13.8245 86.8994 14.0703 86.8994 14.3438V14.5391C86.8994 14.7702 86.9303 14.985 86.9922 15.1836C87.0573 15.3789 87.1517 15.5498 87.2754 15.6963C87.3991 15.8428 87.5488 15.9583 87.7246 16.043C87.9004 16.1243 88.1006 16.165 88.3252 16.165C88.6084 16.165 88.8607 16.1081 89.082 15.9941C89.3034 15.8802 89.4954 15.7191 89.6582 15.5107L90.2783 16.1113C90.1644 16.2773 90.0163 16.4368 89.834 16.5898C89.6517 16.7396 89.4287 16.8617 89.165 16.9561C88.9046 17.0505 88.6019 17.0977 88.2568 17.0977ZM93.5547 14.417V14.3047C93.5547 13.9238 93.61 13.5706 93.7207 13.2451C93.8314 12.9163 93.9909 12.6315 94.1992 12.3906C94.4108 12.1465 94.668 11.9577 94.9707 11.8242C95.2767 11.6875 95.6217 11.6191 96.0059 11.6191C96.3932 11.6191 96.7383 11.6875 97.041 11.8242C97.347 11.9577 97.6058 12.1465 97.8174 12.3906C98.029 12.6315 98.1901 12.9163 98.3008 13.2451C98.4115 13.5706 98.4668 13.9238 98.4668 14.3047V14.417C98.4668 14.7979 98.4115 15.151 98.3008 15.4766C98.1901 15.8021 98.029 16.0869 97.8174 16.3311C97.6058 16.5719 97.3486 16.7607 97.0459 16.8975C96.7432 17.0309 96.3997 17.0977 96.0156 17.0977C95.6283 17.0977 95.2816 17.0309 94.9756 16.8975C94.6729 16.7607 94.4157 16.5719 94.2041 16.3311C93.9925 16.0869 93.8314 15.8021 93.7207 15.4766C93.61 15.151 93.5547 14.7979 93.5547 14.417ZM94.7314 14.3047V14.417C94.7314 14.6546 94.7559 14.8792 94.8047 15.0908C94.8535 15.3024 94.93 15.488 95.0342 15.6475C95.1383 15.807 95.2718 15.9323 95.4346 16.0234C95.5973 16.1146 95.791 16.1602 96.0156 16.1602C96.2337 16.1602 96.4225 16.1146 96.582 16.0234C96.7448 15.9323 96.8783 15.807 96.9824 15.6475C97.0866 15.488 97.1631 15.3024 97.2119 15.0908C97.264 14.8792 97.29 14.6546 97.29 14.417V14.3047C97.29 14.0703 97.264 13.849 97.2119 13.6406C97.1631 13.429 97.085 13.2419 96.9775 13.0791C96.8734 12.9163 96.7399 12.7894 96.5771 12.6982C96.4176 12.6038 96.2272 12.5566 96.0059 12.5566C95.7845 12.5566 95.5924 12.6038 95.4297 12.6982C95.2702 12.7894 95.1383 12.9163 95.0342 13.0791C94.93 13.2419 94.8535 13.429 94.8047 13.6406C94.7559 13.849 94.7314 14.0703 94.7314 14.3047ZM100.62 12.8447V17H99.4434V11.7168H100.552L100.62 12.8447ZM100.41 14.1631L100.029 14.1582C100.033 13.7839 100.085 13.4404 100.186 13.1279C100.29 12.8154 100.433 12.5469 100.615 12.3223C100.801 12.0977 101.022 11.9251 101.279 11.8047C101.536 11.681 101.823 11.6191 102.139 11.6191C102.393 11.6191 102.622 11.6549 102.827 11.7266C103.035 11.7949 103.213 11.9072 103.359 12.0635C103.509 12.2197 103.623 12.4232 103.701 12.6738C103.779 12.9212 103.818 13.2256 103.818 13.5869V17H102.637V13.582C102.637 13.3281 102.599 13.1279 102.524 12.9814C102.453 12.8317 102.347 12.7259 102.207 12.6641C102.07 12.599 101.899 12.5664 101.694 12.5664C101.493 12.5664 101.312 12.6087 101.152 12.6934C100.993 12.778 100.858 12.8936 100.747 13.04C100.64 13.1865 100.557 13.3558 100.498 13.5479C100.439 13.7399 100.41 13.945 100.41 14.1631ZM109.932 11.7168V12.5762H106.953V11.7168H109.932ZM107.812 10.4229H108.989V15.54C108.989 15.7028 109.012 15.8281 109.058 15.916C109.106 16.0007 109.173 16.0576 109.258 16.0869C109.342 16.1162 109.442 16.1309 109.556 16.1309C109.637 16.1309 109.715 16.126 109.79 16.1162C109.865 16.1064 109.925 16.0967 109.971 16.0869L109.976 16.9854C109.878 17.0146 109.764 17.0407 109.634 17.0635C109.507 17.0863 109.36 17.0977 109.194 17.0977C108.924 17.0977 108.685 17.0505 108.477 16.9561C108.268 16.8584 108.105 16.7005 107.988 16.4824C107.871 16.2643 107.812 15.9746 107.812 15.6133V10.4229ZM112.002 9.5V17H110.83V9.5H112.002ZM111.797 14.1631L111.416 14.1582C111.419 13.7936 111.47 13.4567 111.567 13.1475C111.668 12.8382 111.808 12.5697 111.987 12.3418C112.17 12.1107 112.388 11.9333 112.642 11.8096C112.896 11.6826 113.177 11.6191 113.486 11.6191C113.747 11.6191 113.981 11.6549 114.189 11.7266C114.401 11.7982 114.583 11.9137 114.736 12.0732C114.889 12.2295 115.005 12.4346 115.083 12.6885C115.164 12.9391 115.205 13.2451 115.205 13.6064V17H114.023V13.5967C114.023 13.3428 113.986 13.141 113.911 12.9912C113.84 12.8415 113.734 12.734 113.594 12.6689C113.454 12.6006 113.283 12.5664 113.081 12.5664C112.869 12.5664 112.682 12.6087 112.52 12.6934C112.36 12.778 112.227 12.8936 112.119 13.04C112.012 13.1865 111.93 13.3558 111.875 13.5479C111.823 13.7399 111.797 13.945 111.797 14.1631ZM118.726 17.0977C118.335 17.0977 117.982 17.0342 117.666 16.9072C117.354 16.777 117.087 16.5964 116.865 16.3652C116.647 16.1341 116.479 15.8623 116.362 15.5498C116.245 15.2373 116.187 14.9004 116.187 14.5391V14.3438C116.187 13.9303 116.247 13.556 116.367 13.2207C116.488 12.8854 116.655 12.599 116.87 12.3613C117.085 12.1204 117.339 11.9365 117.632 11.8096C117.925 11.6826 118.242 11.6191 118.584 11.6191C118.962 11.6191 119.292 11.6826 119.575 11.8096C119.858 11.9365 120.093 12.1156 120.278 12.3467C120.467 12.5745 120.607 12.8464 120.698 13.1621C120.793 13.4779 120.84 13.8262 120.84 14.207V14.71H116.758V13.8652H119.678V13.7725C119.671 13.5609 119.629 13.3623 119.551 13.1768C119.476 12.9912 119.36 12.8415 119.204 12.7275C119.048 12.6136 118.84 12.5566 118.579 12.5566C118.384 12.5566 118.21 12.599 118.057 12.6836C117.907 12.765 117.782 12.8838 117.681 13.04C117.58 13.1963 117.502 13.3851 117.446 13.6064C117.394 13.8245 117.368 14.0703 117.368 14.3438V14.5391C117.368 14.7702 117.399 14.985 117.461 15.1836C117.526 15.3789 117.62 15.5498 117.744 15.6963C117.868 15.8428 118.018 15.9583 118.193 16.043C118.369 16.1243 118.569 16.165 118.794 16.165C119.077 16.165 119.329 16.1081 119.551 15.9941C119.772 15.8802 119.964 15.7191 120.127 15.5107L120.747 16.1113C120.633 16.2773 120.485 16.4368 120.303 16.5898C120.12 16.7396 119.897 16.8617 119.634 16.9561C119.373 17.0505 119.071 17.0977 118.726 17.0977Z" fill="#172B4D"/>
<path d="M56.5859 23.1406L53.1875 33H51.1328L55.4141 21.625H56.7266L56.5859 23.1406ZM59.4297 33L56.0234 23.1406L55.875 21.625H57.1953L61.4922 33H59.4297ZM59.2656 28.7812V30.3359H53.0781V28.7812H59.2656ZM64.3281 26.1719V36.25H62.4453V24.5469H64.1797L64.3281 26.1719ZM69.8359 28.6953V28.8594C69.8359 29.474 69.763 30.0443 69.6172 30.5703C69.4766 31.0911 69.2656 31.5469 68.9844 31.9375C68.7083 32.3229 68.3672 32.6224 67.9609 32.8359C67.5547 33.0495 67.0859 33.1562 66.5547 33.1562C66.0286 33.1562 65.5677 33.0599 65.1719 32.8672C64.7812 32.6693 64.4505 32.3906 64.1797 32.0312C63.9089 31.6719 63.6901 31.25 63.5234 30.7656C63.362 30.276 63.2474 29.7396 63.1797 29.1562V28.5234C63.2474 27.9036 63.362 27.3411 63.5234 26.8359C63.6901 26.3307 63.9089 25.8958 64.1797 25.5312C64.4505 25.1667 64.7812 24.8854 65.1719 24.6875C65.5625 24.4896 66.0182 24.3906 66.5391 24.3906C67.0703 24.3906 67.5417 24.4948 67.9531 24.7031C68.3646 24.9062 68.7109 25.1979 68.9922 25.5781C69.2734 25.9531 69.4844 26.4062 69.625 26.9375C69.7656 27.4635 69.8359 28.0495 69.8359 28.6953ZM67.9531 28.8594V28.6953C67.9531 28.3047 67.9167 27.9427 67.8438 27.6094C67.7708 27.2708 67.6562 26.974 67.5 26.7188C67.3438 26.4635 67.1432 26.2656 66.8984 26.125C66.6589 25.9792 66.3698 25.9062 66.0312 25.9062C65.6979 25.9062 65.4115 25.9635 65.1719 26.0781C64.9323 26.1875 64.7318 26.3411 64.5703 26.5391C64.4089 26.737 64.2839 26.9688 64.1953 27.2344C64.1068 27.4948 64.0443 27.7786 64.0078 28.0859V29.6016C64.0703 29.9766 64.1771 30.3203 64.3281 30.6328C64.4792 30.9453 64.6927 31.1953 64.9688 31.3828C65.25 31.5651 65.6094 31.6562 66.0469 31.6562C66.3854 31.6562 66.6745 31.5833 66.9141 31.4375C67.1536 31.2917 67.349 31.0911 67.5 30.8359C67.6562 30.5755 67.7708 30.276 67.8438 29.9375C67.9167 29.599 67.9531 29.2396 67.9531 28.8594ZM73.3281 26.1719V36.25H71.4453V24.5469H73.1797L73.3281 26.1719ZM78.8359 28.6953V28.8594C78.8359 29.474 78.763 30.0443 78.6172 30.5703C78.4766 31.0911 78.2656 31.5469 77.9844 31.9375C77.7083 32.3229 77.3672 32.6224 76.9609 32.8359C76.5547 33.0495 76.0859 33.1562 75.5547 33.1562C75.0286 33.1562 74.5677 33.0599 74.1719 32.8672C73.7812 32.6693 73.4505 32.3906 73.1797 32.0312C72.9089 31.6719 72.6901 31.25 72.5234 30.7656C72.362 30.276 72.2474 29.7396 72.1797 29.1562V28.5234C72.2474 27.9036 72.362 27.3411 72.5234 26.8359C72.6901 26.3307 72.9089 25.8958 73.1797 25.5312C73.4505 25.1667 73.7812 24.8854 74.1719 24.6875C74.5625 24.4896 75.0182 24.3906 75.5391 24.3906C76.0703 24.3906 76.5417 24.4948 76.9531 24.7031C77.3646 24.9062 77.7109 25.1979 77.9922 25.5781C78.2734 25.9531 78.4844 26.4062 78.625 26.9375C78.7656 27.4635 78.8359 28.0495 78.8359 28.6953ZM76.9531 28.8594V28.6953C76.9531 28.3047 76.9167 27.9427 76.8438 27.6094C76.7708 27.2708 76.6562 26.974 76.5 26.7188C76.3438 26.4635 76.1432 26.2656 75.8984 26.125C75.6589 25.9792 75.3698 25.9062 75.0312 25.9062C74.6979 25.9062 74.4115 25.9635 74.1719 26.0781C73.9323 26.1875 73.7318 26.3411 73.5703 26.5391C73.4089 26.737 73.2839 26.9688 73.1953 27.2344C73.1068 27.4948 73.0443 27.7786 73.0078 28.0859V29.6016C73.0703 29.9766 73.1771 30.3203 73.3281 30.6328C73.4792 30.9453 73.6927 31.1953 73.9688 31.3828C74.25 31.5651 74.6094 31.6562 75.0469 31.6562C75.3854 31.6562 75.6745 31.5833 75.9141 31.4375C76.1536 31.2917 76.349 31.0911 76.5 30.8359C76.6562 30.5755 76.7708 30.276 76.8438 29.9375C76.9167 29.599 76.9531 29.2396 76.9531 28.8594ZM90.5938 30.0703C90.5938 29.8359 90.5573 29.6276 90.4844 29.4453C90.4167 29.263 90.2943 29.0964 90.1172 28.9453C89.9401 28.7943 89.6901 28.6484 89.3672 28.5078C89.0495 28.362 88.6432 28.2135 88.1484 28.0625C87.6068 27.8958 87.1068 27.7109 86.6484 27.5078C86.1953 27.2995 85.7995 27.0599 85.4609 26.7891C85.1224 26.513 84.8594 26.1979 84.6719 25.8438C84.4844 25.4844 84.3906 25.0703 84.3906 24.6016C84.3906 24.138 84.487 23.7161 84.6797 23.3359C84.8776 22.9557 85.1562 22.6276 85.5156 22.3516C85.8802 22.0703 86.3099 21.8542 86.8047 21.7031C87.2995 21.5469 87.8464 21.4688 88.4453 21.4688C89.2891 21.4688 90.0156 21.625 90.625 21.9375C91.2396 22.25 91.7109 22.6693 92.0391 23.1953C92.3724 23.7214 92.5391 24.3021 92.5391 24.9375H90.5938C90.5938 24.5625 90.513 24.2318 90.3516 23.9453C90.1953 23.6536 89.9557 23.4245 89.6328 23.2578C89.3151 23.0911 88.9115 23.0078 88.4219 23.0078C87.9583 23.0078 87.5729 23.0781 87.2656 23.2188C86.9583 23.3594 86.7292 23.5495 86.5781 23.7891C86.4271 24.0286 86.3516 24.2995 86.3516 24.6016C86.3516 24.8151 86.401 25.0104 86.5 25.1875C86.599 25.3594 86.75 25.5208 86.9531 25.6719C87.1562 25.8177 87.4115 25.9557 87.7188 26.0859C88.026 26.2161 88.388 26.3411 88.8047 26.4609C89.4349 26.6484 89.9844 26.8568 90.4531 27.0859C90.9219 27.3099 91.3125 27.5651 91.625 27.8516C91.9375 28.138 92.1719 28.4635 92.3281 28.8281C92.4844 29.1875 92.5625 29.5964 92.5625 30.0547C92.5625 30.5339 92.4661 30.9661 92.2734 31.3516C92.0807 31.7318 91.8047 32.0573 91.4453 32.3281C91.0911 32.5938 90.6641 32.7995 90.1641 32.9453C89.6693 33.0859 89.1172 33.1562 88.5078 33.1562C87.9609 33.1562 87.4219 33.0833 86.8906 32.9375C86.3646 32.7917 85.8854 32.5703 85.4531 32.2734C85.0208 31.9714 84.6771 31.5964 84.4219 31.1484C84.1667 30.6953 84.0391 30.1667 84.0391 29.5625H86C86 29.9323 86.0625 30.2474 86.1875 30.5078C86.3177 30.7682 86.4974 30.9818 86.7266 31.1484C86.9557 31.3099 87.2214 31.4297 87.5234 31.5078C87.8307 31.5859 88.1589 31.625 88.5078 31.625C88.9661 31.625 89.349 31.5599 89.6562 31.4297C89.9688 31.2995 90.2031 31.1172 90.3594 30.8828C90.5156 30.6484 90.5938 30.3776 90.5938 30.0703ZM97.9844 24.5469V25.9219H93.2188V24.5469H97.9844ZM94.5938 22.4766H96.4766V30.6641C96.4766 30.9245 96.513 31.125 96.5859 31.2656C96.6641 31.401 96.7708 31.4922 96.9062 31.5391C97.0417 31.5859 97.2005 31.6094 97.3828 31.6094C97.513 31.6094 97.638 31.6016 97.7578 31.5859C97.8776 31.5703 97.974 31.5547 98.0469 31.5391L98.0547 32.9766C97.8984 33.0234 97.7161 33.0651 97.5078 33.1016C97.3047 33.138 97.0703 33.1562 96.8047 33.1562C96.3724 33.1562 95.9896 33.0807 95.6562 32.9297C95.3229 32.7734 95.0625 32.5208 94.875 32.1719C94.6875 31.8229 94.5938 31.3594 94.5938 30.7812V22.4766ZM98.8906 28.8672V28.6875C98.8906 28.0781 98.9792 27.513 99.1562 26.9922C99.3333 26.4661 99.5885 26.0104 99.9219 25.625C100.26 25.2344 100.672 24.9323 101.156 24.7188C101.646 24.5 102.198 24.3906 102.812 24.3906C103.432 24.3906 103.984 24.5 104.469 24.7188C104.958 24.9323 105.372 25.2344 105.711 25.625C106.049 26.0104 106.307 26.4661 106.484 26.9922C106.661 27.513 106.75 28.0781 106.75 28.6875V28.8672C106.75 29.4766 106.661 30.0417 106.484 30.5625C106.307 31.0833 106.049 31.5391 105.711 31.9297C105.372 32.3151 104.961 32.6172 104.477 32.8359C103.992 33.0495 103.443 33.1562 102.828 33.1562C102.208 33.1562 101.654 33.0495 101.164 32.8359C100.68 32.6172 100.268 32.3151 99.9297 31.9297C99.5911 31.5391 99.3333 31.0833 99.1562 30.5625C98.9792 30.0417 98.8906 29.4766 98.8906 28.8672ZM100.773 28.6875V28.8672C100.773 29.2474 100.812 29.6068 100.891 29.9453C100.969 30.2839 101.091 30.5807 101.258 30.8359C101.424 31.0911 101.638 31.2917 101.898 31.4375C102.159 31.5833 102.469 31.6562 102.828 31.6562C103.177 31.6562 103.479 31.5833 103.734 31.4375C103.995 31.2917 104.208 31.0911 104.375 30.8359C104.542 30.5807 104.664 30.2839 104.742 29.9453C104.826 29.6068 104.867 29.2474 104.867 28.8672V28.6875C104.867 28.3125 104.826 27.9583 104.742 27.625C104.664 27.2865 104.539 26.987 104.367 26.7266C104.201 26.4661 103.987 26.263 103.727 26.1172C103.471 25.9661 103.167 25.8906 102.812 25.8906C102.458 25.8906 102.151 25.9661 101.891 26.1172C101.635 26.263 101.424 26.4661 101.258 26.7266C101.091 26.987 100.969 27.2865 100.891 27.625C100.812 27.9583 100.773 28.3125 100.773 28.6875ZM110.219 26.1562V33H108.336V24.5469H110.133L110.219 26.1562ZM112.805 24.4922L112.789 26.2422C112.674 26.2214 112.549 26.2057 112.414 26.1953C112.284 26.1849 112.154 26.1797 112.023 26.1797C111.701 26.1797 111.417 26.2266 111.172 26.3203C110.927 26.4089 110.721 26.5391 110.555 26.7109C110.393 26.8776 110.268 27.0807 110.18 27.3203C110.091 27.5599 110.039 27.8281 110.023 28.125L109.594 28.1562C109.594 27.625 109.646 27.1328 109.75 26.6797C109.854 26.2266 110.01 25.8281 110.219 25.4844C110.432 25.1406 110.698 24.8724 111.016 24.6797C111.339 24.487 111.711 24.3906 112.133 24.3906C112.247 24.3906 112.37 24.401 112.5 24.4219C112.635 24.4427 112.737 24.4661 112.805 24.4922ZM117.555 33.1562C116.93 33.1562 116.365 33.0547 115.859 32.8516C115.359 32.6432 114.932 32.3542 114.578 31.9844C114.229 31.6146 113.961 31.1797 113.773 30.6797C113.586 30.1797 113.492 29.6406 113.492 29.0625V28.75C113.492 28.0885 113.589 27.4896 113.781 26.9531C113.974 26.4167 114.242 25.9583 114.586 25.5781C114.93 25.1927 115.336 24.8984 115.805 24.6953C116.273 24.4922 116.781 24.3906 117.328 24.3906C117.932 24.3906 118.461 24.4922 118.914 24.6953C119.367 24.8984 119.742 25.1849 120.039 25.5547C120.341 25.9193 120.565 26.3542 120.711 26.8594C120.862 27.3646 120.938 27.9219 120.938 28.5312V29.3359H114.406V27.9844H119.078V27.8359C119.068 27.4974 119 27.1797 118.875 26.8828C118.755 26.5859 118.57 26.3464 118.32 26.1641C118.07 25.9818 117.737 25.8906 117.32 25.8906C117.008 25.8906 116.729 25.9583 116.484 26.0938C116.245 26.224 116.044 26.4141 115.883 26.6641C115.721 26.9141 115.596 27.2161 115.508 27.5703C115.424 27.9193 115.383 28.3125 115.383 28.75V29.0625C115.383 29.4323 115.432 29.776 115.531 30.0938C115.635 30.4062 115.786 30.6797 115.984 30.9141C116.182 31.1484 116.422 31.3333 116.703 31.4688C116.984 31.599 117.305 31.6641 117.664 31.6641C118.117 31.6641 118.521 31.5729 118.875 31.3906C119.229 31.2083 119.536 30.9505 119.797 30.6172L120.789 31.5781C120.607 31.8438 120.37 32.099 120.078 32.3438C119.786 32.5833 119.43 32.7786 119.008 32.9297C118.591 33.0807 118.107 33.1562 117.555 33.1562Z" fill="#172B4D"/>
<path d="M30.624 16.2221C29.748 16.2221 28.392 15.2261 26.964 15.2621C25.08 15.2861 23.352 16.3541 22.38 18.0461C20.424 21.4421 21.876 26.4581 23.784 29.2181C24.72 30.5621 25.824 32.0741 27.288 32.0261C28.692 31.9661 29.22 31.1141 30.924 31.1141C32.616 31.1141 33.096 32.0261 34.584 31.9901C36.096 31.9661 37.056 30.6221 37.98 29.2661C39.048 27.7061 39.492 26.1941 39.516 26.1101C39.48 26.0981 36.576 24.9821 36.54 21.6221C36.516 18.8141 38.832 17.4701 38.94 17.4101C37.62 15.4781 35.592 15.2621 34.884 15.2141C33.036 15.0701 31.488 16.2221 30.624 16.2221V16.2221ZM33.744 13.3901C34.524 12.4541 35.04 11.1461 34.896 9.8501C33.78 9.8981 32.436 10.5941 31.632 11.5301C30.912 12.3581 30.288 13.6901 30.456 14.9621C31.692 15.0581 32.964 14.3261 33.744 13.3901V13.3901Z" fill="black"/>
</svg>
