<svg width="141" height="45" viewBox="0 0 141 45" fill="none" xmlns="http://www.w3.org/2000/svg">
<path d="M136 1.25H5C2.92893 1.25 1.25 2.92893 1.25 5V40C1.25 42.0711 2.92893 43.75 5 43.75H136C138.071 43.75 139.75 42.0711 139.75 40V5C139.75 2.92893 138.071 1.25 136 1.25Z" fill="white" stroke="#172B4D" stroke-width="1.5"/>
<path d="M50.1816 13.3672V16.082C50.0807 16.2155 49.9229 16.362 49.708 16.5215C49.4964 16.6777 49.2148 16.8128 48.8633 16.9268C48.5117 17.0407 48.0739 17.0977 47.5498 17.0977C47.1038 17.0977 46.6953 17.0228 46.3242 16.873C45.9531 16.7201 45.6325 16.4971 45.3623 16.2041C45.0954 15.9111 44.8887 15.5547 44.7422 15.1348C44.5957 14.7116 44.5225 14.2298 44.5225 13.6895V13.1963C44.5225 12.6592 44.5892 12.1807 44.7227 11.7607C44.8594 11.3376 45.0547 10.9795 45.3086 10.6865C45.5625 10.3936 45.8685 10.1722 46.2266 10.0225C46.5879 9.86947 46.9964 9.79297 47.4521 9.79297C48.0348 9.79297 48.5166 9.89062 48.8975 10.0859C49.2816 10.278 49.5778 10.5449 49.7861 10.8867C49.9945 11.2285 50.1263 11.6191 50.1816 12.0586H48.9805C48.9414 11.8112 48.8649 11.5898 48.751 11.3945C48.6403 11.1992 48.4808 11.0462 48.2725 10.9355C48.0674 10.8216 47.8005 10.7646 47.4717 10.7646C47.1885 10.7646 46.9395 10.8184 46.7246 10.9258C46.5098 11.0332 46.3307 11.1911 46.1875 11.3994C46.0475 11.6077 45.9417 11.8617 45.8701 12.1611C45.7985 12.4606 45.7627 12.8024 45.7627 13.1865V13.6895C45.7627 14.0801 45.8034 14.4268 45.8848 14.7295C45.9694 15.0322 46.0898 15.2878 46.2461 15.4961C46.4056 15.7044 46.5993 15.8623 46.8271 15.9697C47.055 16.0739 47.3122 16.126 47.5986 16.126C47.8786 16.126 48.1081 16.1032 48.2871 16.0576C48.4661 16.0088 48.6077 15.9518 48.7119 15.8867C48.8193 15.8184 48.9023 15.7533 48.9609 15.6914V14.2803H47.4814V13.3672H50.1816ZM53.751 17.0977C53.3604 17.0977 53.0072 17.0342 52.6914 16.9072C52.3789 16.777 52.112 16.5964 51.8906 16.3652C51.6725 16.1341 51.5049 15.8623 51.3877 15.5498C51.2705 15.2373 51.2119 14.9004 51.2119 14.5391V14.3438C51.2119 13.9303 51.2721 13.556 51.3926 13.2207C51.513 12.8854 51.6807 12.599 51.8955 12.3613C52.1104 12.1204 52.3643 11.9365 52.6572 11.8096C52.9502 11.6826 53.2676 11.6191 53.6094 11.6191C53.987 11.6191 54.3174 11.6826 54.6006 11.8096C54.8838 11.9365 55.1182 12.1156 55.3037 12.3467C55.4925 12.5745 55.6325 12.8464 55.7236 13.1621C55.818 13.4779 55.8652 13.8262 55.8652 14.207V14.71H51.7832V13.8652H54.7031V13.7725C54.6966 13.5609 54.6543 13.3623 54.5762 13.1768C54.5013 12.9912 54.3857 12.8415 54.2295 12.7275C54.0732 12.6136 53.8649 12.5566 53.6045 12.5566C53.4092 12.5566 53.235 12.599 53.082 12.6836C52.9323 12.765 52.807 12.8838 52.7061 13.04C52.6051 13.1963 52.527 13.3851 52.4717 13.6064C52.4196 13.8245 52.3936 14.0703 52.3936 14.3438V14.5391C52.3936 14.7702 52.4245 14.985 52.4863 15.1836C52.5514 15.3789 52.6458 15.5498 52.7695 15.6963C52.8932 15.8428 53.043 15.9583 53.2188 16.043C53.3945 16.1243 53.5947 16.165 53.8193 16.165C54.1025 16.165 54.3548 16.1081 54.5762 15.9941C54.7975 15.8802 54.9896 15.7191 55.1523 15.5107L55.7725 16.1113C55.6585 16.2773 55.5104 16.4368 55.3281 16.5898C55.1458 16.7396 54.9229 16.8617 54.6592 16.9561C54.3988 17.0505 54.096 17.0977 53.751 17.0977ZM59.2051 11.7168V12.5762H56.2266V11.7168H59.2051ZM57.0859 10.4229H58.2627V15.54C58.2627 15.7028 58.2855 15.8281 58.3311 15.916C58.3799 16.0007 58.4466 16.0576 58.5312 16.0869C58.6159 16.1162 58.7152 16.1309 58.8291 16.1309C58.9105 16.1309 58.9886 16.126 59.0635 16.1162C59.1383 16.1064 59.1986 16.0967 59.2441 16.0869L59.249 16.9854C59.1514 17.0146 59.0374 17.0407 58.9072 17.0635C58.7803 17.0863 58.6338 17.0977 58.4678 17.0977C58.1976 17.0977 57.9583 17.0505 57.75 16.9561C57.5417 16.8584 57.3789 16.7005 57.2617 16.4824C57.1445 16.2643 57.0859 15.9746 57.0859 15.6133V10.4229ZM64.0293 9.89062V17H62.8037V9.89062H64.0293ZM67.8574 11.7168V12.5762H64.8789V11.7168H67.8574ZM65.7383 10.4229H66.915V15.54C66.915 15.7028 66.9378 15.8281 66.9834 15.916C67.0322 16.0007 67.099 16.0576 67.1836 16.0869C67.2682 16.1162 67.3675 16.1309 67.4814 16.1309C67.5628 16.1309 67.641 16.126 67.7158 16.1162C67.7907 16.1064 67.8509 16.0967 67.8965 16.0869L67.9014 16.9854C67.8037 17.0146 67.6898 17.0407 67.5596 17.0635C67.4326 17.0863 67.2861 17.0977 67.1201 17.0977C66.8499 17.0977 66.6107 17.0505 66.4023 16.9561C66.194 16.8584 66.0312 16.7005 65.9141 16.4824C65.7969 16.2643 65.7383 15.9746 65.7383 15.6133V10.4229ZM77.042 13.25V13.6406C77.042 14.1777 76.972 14.6595 76.832 15.0859C76.6921 15.5124 76.4919 15.8753 76.2314 16.1748C75.9743 16.4743 75.665 16.7038 75.3037 16.8633C74.9424 17.0195 74.542 17.0977 74.1025 17.0977C73.6663 17.0977 73.2676 17.0195 72.9062 16.8633C72.5482 16.7038 72.2373 16.4743 71.9736 16.1748C71.71 15.8753 71.5049 15.5124 71.3584 15.0859C71.2152 14.6595 71.1436 14.1777 71.1436 13.6406V13.25C71.1436 12.7129 71.2152 12.2327 71.3584 11.8096C71.5016 11.3831 71.7035 11.0202 71.9639 10.7207C72.2275 10.418 72.5384 10.1885 72.8965 10.0322C73.2578 9.87272 73.6566 9.79297 74.0928 9.79297C74.5322 9.79297 74.9326 9.87272 75.2939 10.0322C75.6553 10.1885 75.9661 10.418 76.2266 10.7207C76.487 11.0202 76.6872 11.3831 76.8271 11.8096C76.9704 12.2327 77.042 12.7129 77.042 13.25ZM75.8164 13.6406V13.2402C75.8164 12.8431 75.7773 12.4932 75.6992 12.1904C75.6243 11.8844 75.512 11.6289 75.3623 11.4238C75.2158 11.2155 75.0352 11.0592 74.8203 10.9551C74.6055 10.8477 74.363 10.7939 74.0928 10.7939C73.8226 10.7939 73.5817 10.8477 73.3701 10.9551C73.1585 11.0592 72.9779 11.2155 72.8281 11.4238C72.6816 11.6289 72.5693 11.8844 72.4912 12.1904C72.4131 12.4932 72.374 12.8431 72.374 13.2402V13.6406C72.374 14.0378 72.4131 14.3893 72.4912 14.6953C72.5693 15.0013 72.6833 15.2601 72.833 15.4717C72.986 15.68 73.1683 15.8379 73.3799 15.9453C73.5915 16.0495 73.8324 16.1016 74.1025 16.1016C74.376 16.1016 74.6185 16.0495 74.8301 15.9453C75.0417 15.8379 75.2207 15.68 75.3672 15.4717C75.5137 15.2601 75.6243 15.0013 75.6992 14.6953C75.7773 14.3893 75.8164 14.0378 75.8164 13.6406ZM79.3174 12.8447V17H78.1406V11.7168H79.249L79.3174 12.8447ZM79.1074 14.1631L78.7266 14.1582C78.7298 13.7839 78.7819 13.4404 78.8828 13.1279C78.987 12.8154 79.1302 12.5469 79.3125 12.3223C79.498 12.0977 79.7194 11.9251 79.9766 11.8047C80.2337 11.681 80.5202 11.6191 80.8359 11.6191C81.0898 11.6191 81.3193 11.6549 81.5244 11.7266C81.7327 11.7949 81.9102 11.9072 82.0566 12.0635C82.2064 12.2197 82.3203 12.4232 82.3984 12.6738C82.4766 12.9212 82.5156 13.2256 82.5156 13.5869V17H81.334V13.582C81.334 13.3281 81.2965 13.1279 81.2217 12.9814C81.1501 12.8317 81.0443 12.7259 80.9043 12.6641C80.7676 12.599 80.5967 12.5664 80.3916 12.5664C80.1898 12.5664 80.0091 12.6087 79.8496 12.6934C79.6901 12.778 79.555 12.8936 79.4443 13.04C79.3369 13.1865 79.2539 13.3558 79.1953 13.5479C79.1367 13.7399 79.1074 13.945 79.1074 14.1631Z" fill="#172B4D"/>
<path fill-rule="evenodd" clip-rule="evenodd" d="M15.9045 12.3039C15.6795 12.5454 15.5505 12.9174 15.5505 13.4009V30.5929C15.5505 31.0764 15.6795 31.4484 15.913 31.6814L15.974 31.7329L25.607 22.0999V21.8834L15.9655 12.2524L15.9045 12.3039Z" fill="url(#paint0_linear_737_11)"/>
<path fill-rule="evenodd" clip-rule="evenodd" d="M28.8115 25.3234L25.5985 22.1094V21.8844L28.8125 18.6704L28.882 18.7134L32.6835 20.8739C33.772 21.4874 33.772 22.4984 32.6835 23.1204L28.882 25.2809C28.881 25.2804 28.8115 25.3234 28.8115 25.3234Z" fill="url(#paint1_linear_737_11)"/>
<path fill-rule="evenodd" clip-rule="evenodd" d="M28.881 25.2806L25.5985 21.9971L15.9045 31.6911C16.2585 32.0716 16.8545 32.1146 17.5205 31.7426L28.881 25.2806Z" fill="url(#paint2_linear_737_11)"/>
<path fill-rule="evenodd" clip-rule="evenodd" d="M28.881 18.7144L17.5205 12.2609C16.8555 11.8804 16.2585 11.9319 15.9045 12.3124L25.5975 21.9969L28.881 18.7144Z" fill="url(#paint3_linear_737_11)"/>
<path d="M52.8906 27.1875V31.5312C52.7292 31.7448 52.4766 31.9792 52.1328 32.2344C51.7943 32.4844 51.3438 32.7005 50.7812 32.8828C50.2188 33.0651 49.5182 33.1562 48.6797 33.1562C47.9661 33.1562 47.3125 33.0365 46.7188 32.7969C46.125 32.5521 45.612 32.1953 45.1797 31.7266C44.7526 31.2578 44.4219 30.6875 44.1875 30.0156C43.9531 29.3385 43.8359 28.5677 43.8359 27.7031V26.9141C43.8359 26.0547 43.9427 25.2891 44.1562 24.6172C44.375 23.9401 44.6875 23.3672 45.0938 22.8984C45.5 22.4297 45.9896 22.0755 46.5625 21.8359C47.1406 21.5911 47.7943 21.4688 48.5234 21.4688C49.4557 21.4688 50.2266 21.625 50.8359 21.9375C51.4505 22.2448 51.9245 22.6719 52.2578 23.2188C52.5911 23.7656 52.8021 24.3906 52.8906 25.0938H50.9688C50.9062 24.6979 50.7839 24.3438 50.6016 24.0312C50.4245 23.7188 50.1693 23.474 49.8359 23.2969C49.5078 23.1146 49.0807 23.0234 48.5547 23.0234C48.1016 23.0234 47.7031 23.1094 47.3594 23.2812C47.0156 23.4531 46.7292 23.7057 46.5 24.0391C46.276 24.3724 46.1068 24.7786 45.9922 25.2578C45.8776 25.737 45.8203 26.2839 45.8203 26.8984V27.7031C45.8203 28.3281 45.8854 28.8828 46.0156 29.3672C46.151 29.8516 46.3438 30.2604 46.5938 30.5938C46.849 30.9271 47.1589 31.1797 47.5234 31.3516C47.888 31.5182 48.2995 31.6016 48.7578 31.6016C49.2057 31.6016 49.5729 31.5651 49.8594 31.4922C50.1458 31.4141 50.3724 31.3229 50.5391 31.2188C50.7109 31.1094 50.8438 31.0052 50.9375 30.9062V28.6484H48.5703V27.1875H52.8906ZM54.5156 28.8672V28.6875C54.5156 28.0781 54.6042 27.513 54.7812 26.9922C54.9583 26.4661 55.2135 26.0104 55.5469 25.625C55.8854 25.2344 56.2969 24.9323 56.7812 24.7188C57.2708 24.5 57.8229 24.3906 58.4375 24.3906C59.0573 24.3906 59.6094 24.5 60.0938 24.7188C60.5833 24.9323 60.9974 25.2344 61.3359 25.625C61.6745 26.0104 61.9323 26.4661 62.1094 26.9922C62.2865 27.513 62.375 28.0781 62.375 28.6875V28.8672C62.375 29.4766 62.2865 30.0417 62.1094 30.5625C61.9323 31.0833 61.6745 31.5391 61.3359 31.9297C60.9974 32.3151 60.5859 32.6172 60.1016 32.8359C59.6172 33.0495 59.0677 33.1562 58.4531 33.1562C57.8333 33.1562 57.2786 33.0495 56.7891 32.8359C56.3047 32.6172 55.8932 32.3151 55.5547 31.9297C55.2161 31.5391 54.9583 31.0833 54.7812 30.5625C54.6042 30.0417 54.5156 29.4766 54.5156 28.8672ZM56.3984 28.6875V28.8672C56.3984 29.2474 56.4375 29.6068 56.5156 29.9453C56.5938 30.2839 56.7161 30.5807 56.8828 30.8359C57.0495 31.0911 57.263 31.2917 57.5234 31.4375C57.7839 31.5833 58.0938 31.6562 58.4531 31.6562C58.8021 31.6562 59.1042 31.5833 59.3594 31.4375C59.6198 31.2917 59.8333 31.0911 60 30.8359C60.1667 30.5807 60.2891 30.2839 60.3672 29.9453C60.4505 29.6068 60.4922 29.2474 60.4922 28.8672V28.6875C60.4922 28.3125 60.4505 27.9583 60.3672 27.625C60.2891 27.2865 60.1641 26.987 59.9922 26.7266C59.8255 26.4661 59.612 26.263 59.3516 26.1172C59.0964 25.9661 58.7917 25.8906 58.4375 25.8906C58.0833 25.8906 57.776 25.9661 57.5156 26.1172C57.2604 26.263 57.0495 26.4661 56.8828 26.7266C56.7161 26.987 56.5938 27.2865 56.5156 27.625C56.4375 27.9583 56.3984 28.3125 56.3984 28.6875ZM63.5938 28.8672V28.6875C63.5938 28.0781 63.6823 27.513 63.8594 26.9922C64.0365 26.4661 64.2917 26.0104 64.625 25.625C64.9635 25.2344 65.375 24.9323 65.8594 24.7188C66.349 24.5 66.901 24.3906 67.5156 24.3906C68.1354 24.3906 68.6875 24.5 69.1719 24.7188C69.6615 24.9323 70.0755 25.2344 70.4141 25.625C70.7526 26.0104 71.0104 26.4661 71.1875 26.9922C71.3646 27.513 71.4531 28.0781 71.4531 28.6875V28.8672C71.4531 29.4766 71.3646 30.0417 71.1875 30.5625C71.0104 31.0833 70.7526 31.5391 70.4141 31.9297C70.0755 32.3151 69.6641 32.6172 69.1797 32.8359C68.6953 33.0495 68.1458 33.1562 67.5312 33.1562C66.9115 33.1562 66.3568 33.0495 65.8672 32.8359C65.3828 32.6172 64.9714 32.3151 64.6328 31.9297C64.2943 31.5391 64.0365 31.0833 63.8594 30.5625C63.6823 30.0417 63.5938 29.4766 63.5938 28.8672ZM65.4766 28.6875V28.8672C65.4766 29.2474 65.5156 29.6068 65.5938 29.9453C65.6719 30.2839 65.7943 30.5807 65.9609 30.8359C66.1276 31.0911 66.3411 31.2917 66.6016 31.4375C66.862 31.5833 67.1719 31.6562 67.5312 31.6562C67.8802 31.6562 68.1823 31.5833 68.4375 31.4375C68.6979 31.2917 68.9115 31.0911 69.0781 30.8359C69.2448 30.5807 69.3672 30.2839 69.4453 29.9453C69.5286 29.6068 69.5703 29.2474 69.5703 28.8672V28.6875C69.5703 28.3125 69.5286 27.9583 69.4453 27.625C69.3672 27.2865 69.2422 26.987 69.0703 26.7266C68.9036 26.4661 68.6901 26.263 68.4297 26.1172C68.1745 25.9661 67.8698 25.8906 67.5156 25.8906C67.1615 25.8906 66.8542 25.9661 66.5938 26.1172C66.3385 26.263 66.1276 26.4661 65.9609 26.7266C65.7943 26.987 65.6719 27.2865 65.5938 27.625C65.5156 27.9583 65.4766 28.3125 65.4766 28.6875ZM78.4453 24.5469H80.1562V32.7656C80.1562 33.526 79.9948 34.1719 79.6719 34.7031C79.349 35.2344 78.8984 35.638 78.3203 35.9141C77.7422 36.1953 77.0729 36.3359 76.3125 36.3359C75.9896 36.3359 75.6302 36.2891 75.2344 36.1953C74.8438 36.1016 74.4635 35.9505 74.0938 35.7422C73.7292 35.5391 73.4245 35.2708 73.1797 34.9375L74.0625 33.8281C74.3646 34.1875 74.6979 34.4505 75.0625 34.6172C75.4271 34.7839 75.8099 34.8672 76.2109 34.8672C76.6432 34.8672 77.0104 34.7865 77.3125 34.625C77.6198 34.4688 77.8568 34.237 78.0234 33.9297C78.1901 33.6224 78.2734 33.2474 78.2734 32.8047V26.4609L78.4453 24.5469ZM72.7031 28.8672V28.7031C72.7031 28.0625 72.7812 27.4792 72.9375 26.9531C73.0938 26.4219 73.3177 25.9661 73.6094 25.5859C73.901 25.2005 74.2552 24.9062 74.6719 24.7031C75.0885 24.4948 75.5599 24.3906 76.0859 24.3906C76.6328 24.3906 77.099 24.4896 77.4844 24.6875C77.875 24.8854 78.2005 25.1693 78.4609 25.5391C78.7214 25.9036 78.9245 26.3411 79.0703 26.8516C79.2214 27.3568 79.3333 27.9193 79.4062 28.5391V29.0625C79.3385 29.6667 79.224 30.2188 79.0625 30.7188C78.901 31.2188 78.6875 31.651 78.4219 32.0156C78.1562 32.3802 77.8281 32.6615 77.4375 32.8594C77.0521 33.0573 76.5964 33.1562 76.0703 33.1562C75.5547 33.1562 75.0885 33.0495 74.6719 32.8359C74.2604 32.6224 73.9062 32.3229 73.6094 31.9375C73.3177 31.5521 73.0938 31.099 72.9375 30.5781C72.7812 30.0521 72.7031 29.4818 72.7031 28.8672ZM74.5859 28.7031V28.8672C74.5859 29.2526 74.6224 29.612 74.6953 29.9453C74.7734 30.2786 74.8906 30.5729 75.0469 30.8281C75.2083 31.0781 75.4115 31.276 75.6562 31.4219C75.9062 31.5625 76.2005 31.6328 76.5391 31.6328C76.9818 31.6328 77.3438 31.5391 77.625 31.3516C77.9115 31.1641 78.1302 30.9115 78.2812 30.5938C78.4375 30.2708 78.5469 29.9115 78.6094 29.5156V28.1016C78.5781 27.7943 78.513 27.5078 78.4141 27.2422C78.3203 26.9766 78.1927 26.7448 78.0312 26.5469C77.8698 26.3438 77.6667 26.1875 77.4219 26.0781C77.1771 25.9635 76.888 25.9062 76.5547 25.9062C76.2161 25.9062 75.9219 25.9792 75.6719 26.125C75.4219 26.2708 75.2161 26.4714 75.0547 26.7266C74.8984 26.9818 74.7812 27.2786 74.7031 27.6172C74.625 27.9557 74.5859 28.3177 74.5859 28.7031ZM84.125 21V33H82.2344V21H84.125ZM89.9141 33.1562C89.2891 33.1562 88.724 33.0547 88.2188 32.8516C87.7188 32.6432 87.2917 32.3542 86.9375 31.9844C86.5885 31.6146 86.3203 31.1797 86.1328 30.6797C85.9453 30.1797 85.8516 29.6406 85.8516 29.0625V28.75C85.8516 28.0885 85.9479 27.4896 86.1406 26.9531C86.3333 26.4167 86.6016 25.9583 86.9453 25.5781C87.2891 25.1927 87.6953 24.8984 88.1641 24.6953C88.6328 24.4922 89.1406 24.3906 89.6875 24.3906C90.2917 24.3906 90.8203 24.4922 91.2734 24.6953C91.7266 24.8984 92.1016 25.1849 92.3984 25.5547C92.7005 25.9193 92.9245 26.3542 93.0703 26.8594C93.2214 27.3646 93.2969 27.9219 93.2969 28.5312V29.3359H86.7656V27.9844H91.4375V27.8359C91.4271 27.4974 91.3594 27.1797 91.2344 26.8828C91.1146 26.5859 90.9297 26.3464 90.6797 26.1641C90.4297 25.9818 90.0964 25.8906 89.6797 25.8906C89.3672 25.8906 89.0885 25.9583 88.8438 26.0938C88.6042 26.224 88.4036 26.4141 88.2422 26.6641C88.0807 26.9141 87.9557 27.2161 87.8672 27.5703C87.7839 27.9193 87.7422 28.3125 87.7422 28.75V29.0625C87.7422 29.4323 87.7917 29.776 87.8906 30.0938C87.9948 30.4062 88.1458 30.6797 88.3438 30.9141C88.5417 31.1484 88.7812 31.3333 89.0625 31.4688C89.3438 31.599 89.6641 31.6641 90.0234 31.6641C90.4766 31.6641 90.8802 31.5729 91.2344 31.3906C91.5885 31.2083 91.8958 30.9505 92.1562 30.6172L93.1484 31.5781C92.9661 31.8438 92.7292 32.099 92.4375 32.3438C92.1458 32.5833 91.7891 32.7786 91.3672 32.9297C90.9505 33.0807 90.4661 33.1562 89.9141 33.1562ZM103.258 28.7578H100.297V27.2031H103.258C103.773 27.2031 104.19 27.1198 104.508 26.9531C104.826 26.7865 105.057 26.5573 105.203 26.2656C105.354 25.9688 105.43 25.6302 105.43 25.25C105.43 24.8906 105.354 24.5547 105.203 24.2422C105.057 23.9245 104.826 23.6693 104.508 23.4766C104.19 23.2839 103.773 23.1875 103.258 23.1875H100.898V33H98.9375V21.625H103.258C104.138 21.625 104.885 21.7812 105.5 22.0938C106.12 22.401 106.591 22.8281 106.914 23.375C107.237 23.9167 107.398 24.5365 107.398 25.2344C107.398 25.9688 107.237 26.599 106.914 27.125C106.591 27.651 106.12 28.0547 105.5 28.3359C104.885 28.6172 104.138 28.7578 103.258 28.7578ZM110.984 21V33H109.094V21H110.984ZM117.812 31.3047V27.2734C117.812 26.9714 117.758 26.7109 117.648 26.4922C117.539 26.2734 117.372 26.1042 117.148 25.9844C116.93 25.8646 116.654 25.8047 116.32 25.8047C116.013 25.8047 115.747 25.8568 115.523 25.9609C115.299 26.0651 115.125 26.2057 115 26.3828C114.875 26.5599 114.812 26.7604 114.812 26.9844H112.938C112.938 26.651 113.018 26.3281 113.18 26.0156C113.341 25.7031 113.576 25.4245 113.883 25.1797C114.19 24.9349 114.557 24.7422 114.984 24.6016C115.411 24.4609 115.891 24.3906 116.422 24.3906C117.057 24.3906 117.62 24.4974 118.109 24.7109C118.604 24.9245 118.992 25.2474 119.273 25.6797C119.56 26.1068 119.703 26.6432 119.703 27.2891V31.0469C119.703 31.4323 119.729 31.7786 119.781 32.0859C119.839 32.388 119.919 32.651 120.023 32.875V33H118.094C118.005 32.7969 117.935 32.5391 117.883 32.2266C117.836 31.9089 117.812 31.6016 117.812 31.3047ZM118.086 27.8594L118.102 29.0234H116.75C116.401 29.0234 116.094 29.0573 115.828 29.125C115.562 29.1875 115.341 29.2812 115.164 29.4062C114.987 29.5312 114.854 29.6823 114.766 29.8594C114.677 30.0365 114.633 30.237 114.633 30.4609C114.633 30.6849 114.685 30.8906 114.789 31.0781C114.893 31.2604 115.044 31.4036 115.242 31.5078C115.445 31.612 115.69 31.6641 115.977 31.6641C116.362 31.6641 116.698 31.5859 116.984 31.4297C117.276 31.2682 117.505 31.0729 117.672 30.8438C117.839 30.6094 117.927 30.388 117.938 30.1797L118.547 31.0156C118.484 31.2292 118.378 31.4583 118.227 31.7031C118.076 31.9479 117.878 32.1823 117.633 32.4062C117.393 32.625 117.104 32.8047 116.766 32.9453C116.432 33.0859 116.047 33.1562 115.609 33.1562C115.057 33.1562 114.565 33.0469 114.133 32.8281C113.701 32.6042 113.362 32.3047 113.117 31.9297C112.872 31.5495 112.75 31.1198 112.75 30.6406C112.75 30.1927 112.833 29.7969 113 29.4531C113.172 29.1042 113.422 28.8125 113.75 28.5781C114.083 28.3438 114.49 28.1667 114.969 28.0469C115.448 27.9219 115.995 27.8594 116.609 27.8594H118.086ZM124 32.0781L126.297 24.5469H128.312L124.922 34.2891C124.844 34.4974 124.742 34.724 124.617 34.9688C124.492 35.2135 124.328 35.4453 124.125 35.6641C123.927 35.888 123.68 36.0677 123.383 36.2031C123.086 36.3438 122.727 36.4141 122.305 36.4141C122.138 36.4141 121.977 36.3984 121.82 36.3672C121.669 36.3411 121.526 36.3125 121.391 36.2812L121.383 34.8438C121.435 34.849 121.497 34.8542 121.57 34.8594C121.648 34.8646 121.711 34.8672 121.758 34.8672C122.07 34.8672 122.331 34.8281 122.539 34.75C122.747 34.6771 122.917 34.5573 123.047 34.3906C123.182 34.224 123.297 34 123.391 33.7188L124 32.0781ZM122.703 24.5469L124.711 30.875L125.047 32.8594L123.742 33.1953L120.672 24.5469H122.703Z" fill="#172B4D"/>
<defs>
<linearGradient id="paint0_linear_737_11" x1="31.346" y1="6.60312" x2="10.5576" y2="12.1461" gradientUnits="userSpaceOnUse">
<stop stop-color="#047ED6"/>
<stop offset="1" stop-color="#50E6FF"/>
</linearGradient>
<linearGradient id="paint1_linear_737_11" x1="34.1012" y1="21.9962" x2="23.3239" y2="21.9962" gradientUnits="userSpaceOnUse">
<stop stop-color="#FFDA1C"/>
<stop offset="1" stop-color="#FEB705"/>
</linearGradient>
<linearGradient id="paint2_linear_737_11" x1="27.0933" y1="23.7814" x2="14.7076" y2="44.6308" gradientUnits="userSpaceOnUse">
<stop stop-color="#D9414F"/>
<stop offset="1" stop-color="#8C193F"/>
</linearGradient>
<linearGradient id="paint3_linear_737_11" x1="13.4626" y1="6.58323" x2="18.9879" y2="15.8958" gradientUnits="userSpaceOnUse">
<stop stop-color="#33C481"/>
<stop offset="1" stop-color="#61E3A7"/>
</linearGradient>
</defs>
</svg>
