<?xml version="1.0" encoding="UTF-8" standalone="no"?><svg xmlns="http://www.w3.org/2000/svg" xmlns:xlink="http://www.w3.org/1999/xlink" fill="#2a3240" height="76.4" preserveAspectRatio="xMidYMid meet" version="1" viewBox="0.0 0.0 100.0 76.4" width="100" zoomAndPan="magnify"><defs><clipPath id="a"><path d="M 0 0 L 91 0 L 91 76.398438 L 0 76.398438 Z M 0 0"/></clipPath></defs><g><g id="change1_2"><path d="M 49.199219 24.199219 L 63.5 36.902344 L 63.597656 36.199219 C 63.597656 29.5 57.5 24.101562 50 24.101562 L 49.199219 24.199219" fill="inherit"/></g><g id="change1_3"><path d="M 50 16 C 62.5 16 72.699219 25 72.699219 36.101562 C 72.699219 38.699219 72.097656 41.101562 71.097656 43.402344 L 84.402344 55.199219 C 91.300781 50.199219 96.699219 43.601562 100 36.101562 C 92.097656 18.5 72.699219 6 50 6 C 43.601562 6 37.5 7 31.898438 8.800781 L 41.699219 17.402344 C 44.300781 16.601562 47.101562 16 50 16" fill="inherit"/></g><g clip-path="url(#a)" id="change1_1"><path d="M 29.699219 27.300781 L 36.699219 33.5 C 36.5 34.300781 36.398438 35.300781 36.398438 36.101562 C 36.398438 42.800781 42.5 48.199219 50 48.199219 C 51 48.199219 52 48 53 47.902344 L 60 54.101562 C 57 55.402344 53.597656 56.199219 50 56.199219 C 37.5 56.199219 27.300781 47.199219 27.300781 36.101562 C 27.300781 33 28.199219 30 29.699219 27.300781 Z M 4.5 5.101562 L 14.898438 14.300781 L 17 16.101562 C 9.5 21.300781 3.5 28.199219 0 36.199219 C 7.898438 53.902344 27.300781 66.398438 50 66.398438 C 57 66.398438 63.800781 65.199219 69.902344 63 L 71.800781 64.699219 L 85.097656 76.398438 L 90.902344 71.300781 L 10.300781 0 L 4.5 5.101562" fill="inherit"/></g></g></svg>