<?xml version="1.0" encoding="UTF-8" standalone="no"?><svg xmlns="http://www.w3.org/2000/svg" xmlns:xlink="http://www.w3.org/1999/xlink" data-name="Layer 1" fill="#2a3240" height="90" preserveAspectRatio="xMidYMid meet" version="1" viewBox="5.0 5.0 90.0 90.0" width="90" zoomAndPan="magnify"><g id="change1_1"><path d="M50,5A45,45,0,1,0,95,50,45,45,0,0,0,50,5ZM25.2,80.56a33.72,33.72,0,0,1,49.59,0,39.27,39.27,0,0,1-49.59,0ZM78.9,76.71a39.34,39.34,0,0,0-57.79,0,39.38,39.38,0,1,1,57.79,0Z"/></g><g id="change1_2"><path d="M50,21.88A19.69,19.69,0,1,0,69.69,41.56,19.69,19.69,0,0,0,50,21.88Zm0,33.75A14.06,14.06,0,1,1,64.06,41.56,14.08,14.08,0,0,1,50,55.63Z"/></g></svg>